<?xml version="1.0" encoding="iso-8859-1"?>
<!-- Generator: Adobe Illustrator 19.0.0, SVG Export Plug-In . SVG Version: 6.00 Build 0)  -->
<svg version="1.1" id="Layer_1" xmlns="http://www.w3.org/2000/svg" xmlns:xlink="http://www.w3.org/1999/xlink" x="0px" y="0px"
	 viewBox="0 0 483.409 483.409" style="enable-background:new 0 0 483.409 483.409;" xml:space="preserve">
<g>
	<path d="M409.497,128.549C389.328,53.36,320.662,0,241.705,0C162.748,0,94.081,53.36,73.912,128.549H31.39v15
		c0,84.608,50.226,157.696,122.423,191.044v19.271h175.783v-19.271c72.197-33.348,122.423-106.436,122.423-191.044v-15H409.497z
		 M241.705,30c62.57,0,117.325,40.488,136.495,98.549H105.21C124.379,70.488,179.135,30,241.705,30z M241.705,323.864
		c-94.377,0-172.051-72.877-179.696-165.315h359.393C413.755,250.986,336.082,323.864,241.705,323.864z"/>
	<rect x="49.523" y="453.409" width="390.629" height="30"/>
	<rect x="49.523" y="393.619" width="390.629" height="30"/>
</g>
<g>
</g>
<g>
</g>
<g>
</g>
<g>
</g>
<g>
</g>
<g>
</g>
<g>
</g>
<g>
</g>
<g>
</g>
<g>
</g>
<g>
</g>
<g>
</g>
<g>
</g>
<g>
</g>
<g>
</g>
</svg>
